<?xml version="1.0" standalone="no"?>
<!DOCTYPE svg PUBLIC "-//W3C//DTD SVG 20010904//EN"
 "http://www.w3.org/TR/2001/REC-SVG-20010904/DTD/svg10.dtd">
<svg version="1.0" xmlns="http://www.w3.org/2000/svg"
 width="400.000000pt" height="200.000000pt" viewBox="0 0 400.000000 200.000000"
 preserveAspectRatio="xMidYMid meet">

<g transform="translate(0.000000,200.000000) scale(0.100000,-0.100000)"
fill="#000000" stroke="none">
<path d="M10 1588 l0 -233 34 61 c47 88 94 150 173 224 78 75 113 101 198 147
l60 33 -232 0 -233 0 0 -232z"/>
<path d="M705 1809 c-209 -31 -415 -158 -540 -334 -58 -81 -90 -147 -122 -252
l-27 -88 -4 -478 -3 -478 478 3 c461 4 481 5 553 27 296 88 501 297 583 591
20 70 21 105 25 548 l3 472 -443 -1 c-244 -1 -470 -5 -503 -10z m-305 -599 l0
-140 135 0 134 0 3 138 3 137 80 0 80 0 0 -345 0 -345 -80 0 -80 0 -3 138 -3
137 -134 0 -135 0 0 -140 0 -140 -80 0 -80 0 0 350 0 350 80 0 80 0 0 -140z
m885 113 c50 -26 80 -58 100 -105 32 -79 13 -155 -54 -209 l-41 -33 29 -30
c35 -36 153 -277 142 -289 -4 -4 -45 -7 -91 -5 l-83 3 -47 105 c-57 128 -92
170 -144 170 l-36 0 0 -140 0 -141 -82 3 -83 3 -3 335 c-1 184 0 341 3 348 4
11 39 13 178 10 152 -3 177 -6 212 -25z"/>
<path d="M1060 1139 l0 -81 66 4 c77 5 104 27 104 83 0 50 -37 75 -111 75
l-59 0 0 -81z"/>
<path d="M3745 1212 c-96 -46 -133 -147 -82 -223 12 -19 56 -57 97 -85 79 -55
96 -78 86 -117 -13 -51 -101 -59 -189 -17 -22 11 -42 18 -45 15 -2 -2 -7 -24
-9 -48 l-5 -44 48 -19 c72 -28 197 -26 244 3 69 43 100 144 66 211 -18 35 -42
57 -124 112 -79 53 -91 84 -46 119 33 26 69 27 136 1 28 -11 53 -18 54 -17 2
2 6 21 10 44 6 39 5 42 -27 59 -52 26 -164 29 -214 6z"/>
<path d="M1956 1208 c-3 -7 -43 -130 -90 -274 -47 -144 -86 -264 -86 -268 0
-3 26 -6 58 -6 l57 0 64 191 c34 105 65 188 68 186 2 -3 25 -88 51 -188 l47
-184 30 -3 c29 -2 33 2 128 178 54 99 103 182 108 186 5 3 10 -25 10 -63 1
-37 4 -120 8 -183 l6 -115 58 -3 59 -3 -6 53 c-3 29 -8 123 -11 208 -3 85 -8
188 -11 228 l-6 72 -62 0 -62 0 -93 -175 c-51 -97 -95 -174 -97 -172 -2 2 -23
79 -47 173 l-44 169 -67 3 c-48 2 -67 -1 -70 -10z"/>
<path d="M2768 1073 c-38 -82 -99 -208 -134 -280 l-63 -133 63 0 63 0 26 60
26 60 90 0 90 0 6 -37 c14 -88 9 -83 76 -83 53 0 60 2 55 18 -3 9 -21 111 -41
227 -19 116 -40 234 -46 263 l-10 52 -65 0 -65 0 -71 -147z m136 -68 c4 -38 9
-87 13 -107 l6 -38 -67 0 c-36 0 -66 3 -66 8 0 4 21 58 47 120 28 69 49 108
53 100 4 -7 10 -44 14 -83z"/>
<path d="M3167 948 c-21 -150 -37 -277 -37 -281 0 -4 26 -7 58 -5 l57 3 14
101 13 102 87 4 c147 7 213 62 215 177 1 70 -24 117 -80 148 -35 20 -53 23
-164 23 l-126 0 -37 -272z m253 163 c45 -32 39 -111 -10 -136 -39 -20 -120
-20 -120 0 0 8 5 49 11 91 l12 76 41 -6 c22 -4 52 -15 66 -25z"/>
<path d="M1640 637 c0 -7 -23 -50 -50 -95 -86 -138 -199 -247 -340 -326 l-65
-36 233 0 232 0 0 235 c0 129 -2 235 -5 235 -3 0 -5 -6 -5 -13z"/>
</g>
</svg>
