<?xml version="1.0" standalone="no"?>
<!DOCTYPE svg PUBLIC "-//W3C//DTD SVG 20010904//EN"
 "http://www.w3.org/TR/2001/REC-SVG-20010904/DTD/svg10.dtd">
<svg version="1.0" xmlns="http://www.w3.org/2000/svg"
 width="165.000000pt" height="164.000000pt" viewBox="0 0 165.000000 164.000000"
 preserveAspectRatio="xMidYMid meet">

<g transform="translate(0.000000,164.000000) scale(0.100000,-0.100000)"
fill="#000000" stroke="none">
<path d="M10 1408 l0 -233 34 61 c47 88 94 150 173 224 78 75 113 101 198 147
l60 33 -232 0 -233 0 0 -232z"/>
<path d="M713 1630 c-168 -25 -319 -99 -447 -219 -107 -102 -176 -216 -223
-368 l-27 -88 -4 -477 -3 -478 434 0 c479 0 545 6 685 60 239 92 423 300 494
556 21 75 22 103 26 552 l3 472 -443 -1 c-244 -1 -466 -5 -495 -9z m-312 -592
c1 -73 1 -136 0 -140 0 -5 60 -8 134 -8 l134 0 3 138 3 137 80 0 80 0 0 -345
0 -345 -74 -3 c-53 -2 -77 1 -82 10 -5 7 -9 70 -9 141 l0 127 -135 0 -135 0 0
-140 0 -140 -80 0 -80 0 0 350 0 350 80 0 80 0 1 -132z m884 105 c50 -26 80
-58 100 -105 32 -79 13 -155 -54 -209 l-41 -33 29 -30 c34 -36 152 -277 141
-289 -4 -4 -44 -7 -90 -5 l-83 3 -47 105 c-57 128 -92 170 -144 170 l-36 0 0
-140 0 -141 -82 3 -83 3 -3 335 c-1 184 0 341 3 348 4 11 39 13 178 10 152 -3
177 -6 212 -25z"/>
<path d="M1060 959 l0 -81 66 4 c77 5 104 27 104 83 0 50 -37 75 -111 75 l-59
0 0 -81z"/>
<path d="M1640 457 c0 -7 -23 -50 -50 -95 -86 -138 -199 -247 -340 -326 l-65
-36 233 0 232 0 0 235 c0 129 -2 235 -5 235 -3 0 -5 -6 -5 -13z"/>
</g>
</svg>
